<mxfile host="app.diagrams.net" agent="Mozilla/5.0 (Windows NT 10.0; Win64; x64) AppleWebKit/537.36 (KHTML, like Gecko) Chrome/129.0.0.0 Safari/537.36 Edg/129.0.0.0" modified="2024-10-19T21:13:29.668Z" version="24.5.4" etag="WzGwxJB45qKtk39QzLV3" type="device">
  <diagram name="Page-1" id="HfNixM3QeqBaOJUn66Qr">
    <mxGraphModel dx="1668" dy="2019" grid="1" gridSize="10" guides="1" tooltips="1" connect="1" arrows="1" fold="1" page="1" pageScale="1" pageWidth="850" pageHeight="1100" math="0" shadow="0">
      <root>
        <mxCell id="0" />
        <mxCell id="1" parent="0" />
        <mxCell id="AwRlIOt6ZwoSPuZwess_-1" value="Image" style="swimlane;fontStyle=1;align=center;verticalAlign=top;childLayout=stackLayout;horizontal=1;startSize=26;horizontalStack=0;resizeParent=1;resizeParentMax=0;resizeLast=0;collapsible=1;marginBottom=0;whiteSpace=wrap;html=1;" vertex="1" parent="1">
          <mxGeometry x="550" y="-90" width="160" height="510" as="geometry" />
        </mxCell>
        <mxCell id="AwRlIOt6ZwoSPuZwess_-2" value="+ image:&amp;nbsp; pygame Surface" style="text;strokeColor=none;fillColor=none;align=left;verticalAlign=top;spacingLeft=4;spacingRight=4;overflow=hidden;rotatable=0;points=[[0,0.5],[1,0.5]];portConstraint=eastwest;whiteSpace=wrap;html=1;" vertex="1" parent="AwRlIOt6ZwoSPuZwess_-1">
          <mxGeometry y="26" width="160" height="26" as="geometry" />
        </mxCell>
        <mxCell id="AwRlIOt6ZwoSPuZwess_-5" value="&lt;font style=&quot;font-size: 12px;&quot;&gt;+ originalImage: pygame Surface&lt;/font&gt;" style="text;strokeColor=none;fillColor=none;align=left;verticalAlign=top;spacingLeft=4;spacingRight=4;overflow=hidden;rotatable=0;points=[[0,0.5],[1,0.5]];portConstraint=eastwest;whiteSpace=wrap;html=1;" vertex="1" parent="AwRlIOt6ZwoSPuZwess_-1">
          <mxGeometry y="52" width="160" height="38" as="geometry" />
        </mxCell>
        <mxCell id="AwRlIOt6ZwoSPuZwess_-7" value="&lt;font style=&quot;font-size: 12px;&quot;&gt;+ scaledImage: pygame Surface&lt;/font&gt;" style="text;strokeColor=none;fillColor=none;align=left;verticalAlign=top;spacingLeft=4;spacingRight=4;overflow=hidden;rotatable=0;points=[[0,0.5],[1,0.5]];portConstraint=eastwest;whiteSpace=wrap;html=1;" vertex="1" parent="AwRlIOt6ZwoSPuZwess_-1">
          <mxGeometry y="90" width="160" height="40" as="geometry" />
        </mxCell>
        <mxCell id="AwRlIOt6ZwoSPuZwess_-8" value="+ __size: Vec2" style="text;strokeColor=none;fillColor=none;align=left;verticalAlign=top;spacingLeft=4;spacingRight=4;overflow=hidden;rotatable=0;points=[[0,0.5],[1,0.5]];portConstraint=eastwest;whiteSpace=wrap;html=1;" vertex="1" parent="AwRlIOt6ZwoSPuZwess_-1">
          <mxGeometry y="130" width="160" height="26" as="geometry" />
        </mxCell>
        <mxCell id="AwRlIOt6ZwoSPuZwess_-9" value="+ __rotation: Float" style="text;strokeColor=none;fillColor=none;align=left;verticalAlign=top;spacingLeft=4;spacingRight=4;overflow=hidden;rotatable=0;points=[[0,0.5],[1,0.5]];portConstraint=eastwest;whiteSpace=wrap;html=1;" vertex="1" parent="AwRlIOt6ZwoSPuZwess_-1">
          <mxGeometry y="156" width="160" height="26" as="geometry" />
        </mxCell>
        <mxCell id="AwRlIOt6ZwoSPuZwess_-3" value="" style="line;strokeWidth=1;fillColor=none;align=left;verticalAlign=middle;spacingTop=-1;spacingLeft=3;spacingRight=3;rotatable=0;labelPosition=right;points=[];portConstraint=eastwest;strokeColor=inherit;" vertex="1" parent="AwRlIOt6ZwoSPuZwess_-1">
          <mxGeometry y="182" width="160" height="8" as="geometry" />
        </mxCell>
        <mxCell id="AwRlIOt6ZwoSPuZwess_-4" value="+ blitAt(pos: Vec2): void" style="text;strokeColor=none;fillColor=none;align=left;verticalAlign=top;spacingLeft=4;spacingRight=4;overflow=hidden;rotatable=0;points=[[0,0.5],[1,0.5]];portConstraint=eastwest;whiteSpace=wrap;html=1;" vertex="1" parent="AwRlIOt6ZwoSPuZwess_-1">
          <mxGeometry y="190" width="160" height="26" as="geometry" />
        </mxCell>
        <mxCell id="AwRlIOt6ZwoSPuZwess_-10" value="+ blitAtCropped(pos: Vec2, boundingBox: Rect): void" style="text;strokeColor=none;fillColor=none;align=left;verticalAlign=top;spacingLeft=4;spacingRight=4;overflow=hidden;rotatable=0;points=[[0,0.5],[1,0.5]];portConstraint=eastwest;whiteSpace=wrap;html=1;" vertex="1" parent="AwRlIOt6ZwoSPuZwess_-1">
          <mxGeometry y="216" width="160" height="40" as="geometry" />
        </mxCell>
        <mxCell id="AwRlIOt6ZwoSPuZwess_-11" value="+ scaleTo(size: Vec2): void" style="text;strokeColor=none;fillColor=none;align=left;verticalAlign=top;spacingLeft=4;spacingRight=4;overflow=hidden;rotatable=0;points=[[0,0.5],[1,0.5]];portConstraint=eastwest;whiteSpace=wrap;html=1;" vertex="1" parent="AwRlIOt6ZwoSPuZwess_-1">
          <mxGeometry y="256" width="160" height="24" as="geometry" />
        </mxCell>
        <mxCell id="AwRlIOt6ZwoSPuZwess_-12" value="+ scaleBy(size: Vec2): void" style="text;strokeColor=none;fillColor=none;align=left;verticalAlign=top;spacingLeft=4;spacingRight=4;overflow=hidden;rotatable=0;points=[[0,0.5],[1,0.5]];portConstraint=eastwest;whiteSpace=wrap;html=1;" vertex="1" parent="AwRlIOt6ZwoSPuZwess_-1">
          <mxGeometry y="280" width="160" height="24" as="geometry" />
        </mxCell>
        <mxCell id="AwRlIOt6ZwoSPuZwess_-13" value="+ rotateTo(rotation: float): void" style="text;strokeColor=none;fillColor=none;align=left;verticalAlign=top;spacingLeft=4;spacingRight=4;overflow=hidden;rotatable=0;points=[[0,0.5],[1,0.5]];portConstraint=eastwest;whiteSpace=wrap;html=1;" vertex="1" parent="AwRlIOt6ZwoSPuZwess_-1">
          <mxGeometry y="304" width="160" height="36" as="geometry" />
        </mxCell>
        <mxCell id="AwRlIOt6ZwoSPuZwess_-14" value="+ rotateBy(rotation: float): void" style="text;strokeColor=none;fillColor=none;align=left;verticalAlign=top;spacingLeft=4;spacingRight=4;overflow=hidden;rotatable=0;points=[[0,0.5],[1,0.5]];portConstraint=eastwest;whiteSpace=wrap;html=1;" vertex="1" parent="AwRlIOt6ZwoSPuZwess_-1">
          <mxGeometry y="340" width="160" height="36" as="geometry" />
        </mxCell>
        <mxCell id="AwRlIOt6ZwoSPuZwess_-15" value="+ updateImageRotation(): void" style="text;strokeColor=none;fillColor=none;align=left;verticalAlign=top;spacingLeft=4;spacingRight=4;overflow=hidden;rotatable=0;points=[[0,0.5],[1,0.5]];portConstraint=eastwest;whiteSpace=wrap;html=1;" vertex="1" parent="AwRlIOt6ZwoSPuZwess_-1">
          <mxGeometry y="376" width="160" height="34" as="geometry" />
        </mxCell>
        <mxCell id="AwRlIOt6ZwoSPuZwess_-16" value="&lt;font style=&quot;font-size: 10px;&quot;&gt;+ updateImageTransformation(): void&lt;/font&gt;" style="text;strokeColor=none;fillColor=none;align=left;verticalAlign=top;spacingLeft=4;spacingRight=4;overflow=hidden;rotatable=0;points=[[0,0.5],[1,0.5]];portConstraint=eastwest;whiteSpace=wrap;html=1;" vertex="1" parent="AwRlIOt6ZwoSPuZwess_-1">
          <mxGeometry y="410" width="160" height="30" as="geometry" />
        </mxCell>
        <mxCell id="AwRlIOt6ZwoSPuZwess_-17" value="&lt;font style=&quot;font-size: 12px;&quot;&gt;+ getRect(offset: Vec2): pygame Rect&lt;/font&gt;" style="text;strokeColor=none;fillColor=none;align=left;verticalAlign=top;spacingLeft=4;spacingRight=4;overflow=hidden;rotatable=0;points=[[0,0.5],[1,0.5]];portConstraint=eastwest;whiteSpace=wrap;html=1;" vertex="1" parent="AwRlIOt6ZwoSPuZwess_-1">
          <mxGeometry y="440" width="160" height="40" as="geometry" />
        </mxCell>
        <mxCell id="AwRlIOt6ZwoSPuZwess_-18" value="&lt;font style=&quot;font-size: 12px;&quot;&gt;+ getSize(): Vec2&lt;/font&gt;" style="text;strokeColor=none;fillColor=none;align=left;verticalAlign=top;spacingLeft=4;spacingRight=4;overflow=hidden;rotatable=0;points=[[0,0.5],[1,0.5]];portConstraint=eastwest;whiteSpace=wrap;html=1;" vertex="1" parent="AwRlIOt6ZwoSPuZwess_-1">
          <mxGeometry y="480" width="160" height="30" as="geometry" />
        </mxCell>
        <mxCell id="AwRlIOt6ZwoSPuZwess_-19" value="Vec2" style="swimlane;fontStyle=1;align=center;verticalAlign=top;childLayout=stackLayout;horizontal=1;startSize=26;horizontalStack=0;resizeParent=1;resizeParentMax=0;resizeLast=0;collapsible=1;marginBottom=0;whiteSpace=wrap;html=1;" vertex="1" parent="1">
          <mxGeometry x="320" y="-500" width="160" height="560" as="geometry" />
        </mxCell>
        <mxCell id="AwRlIOt6ZwoSPuZwess_-20" value="+ x: float" style="text;strokeColor=none;fillColor=none;align=left;verticalAlign=top;spacingLeft=4;spacingRight=4;overflow=hidden;rotatable=0;points=[[0,0.5],[1,0.5]];portConstraint=eastwest;whiteSpace=wrap;html=1;" vertex="1" parent="AwRlIOt6ZwoSPuZwess_-19">
          <mxGeometry y="26" width="160" height="26" as="geometry" />
        </mxCell>
        <mxCell id="AwRlIOt6ZwoSPuZwess_-23" value="+ y: float" style="text;strokeColor=none;fillColor=none;align=left;verticalAlign=top;spacingLeft=4;spacingRight=4;overflow=hidden;rotatable=0;points=[[0,0.5],[1,0.5]];portConstraint=eastwest;whiteSpace=wrap;html=1;" vertex="1" parent="AwRlIOt6ZwoSPuZwess_-19">
          <mxGeometry y="52" width="160" height="26" as="geometry" />
        </mxCell>
        <mxCell id="AwRlIOt6ZwoSPuZwess_-21" value="" style="line;strokeWidth=1;fillColor=none;align=left;verticalAlign=middle;spacingTop=-1;spacingLeft=3;spacingRight=3;rotatable=0;labelPosition=right;points=[];portConstraint=eastwest;strokeColor=inherit;" vertex="1" parent="AwRlIOt6ZwoSPuZwess_-19">
          <mxGeometry y="78" width="160" height="8" as="geometry" />
        </mxCell>
        <mxCell id="AwRlIOt6ZwoSPuZwess_-22" value="+ __repr__(): str" style="text;strokeColor=none;fillColor=none;align=left;verticalAlign=top;spacingLeft=4;spacingRight=4;overflow=hidden;rotatable=0;points=[[0,0.5],[1,0.5]];portConstraint=eastwest;whiteSpace=wrap;html=1;" vertex="1" parent="AwRlIOt6ZwoSPuZwess_-19">
          <mxGeometry y="86" width="160" height="26" as="geometry" />
        </mxCell>
        <mxCell id="AwRlIOt6ZwoSPuZwess_-24" value="+ __add__(other: Vec2|float|int): Vec2" style="text;strokeColor=none;fillColor=none;align=left;verticalAlign=top;spacingLeft=4;spacingRight=4;overflow=hidden;rotatable=0;points=[[0,0.5],[1,0.5]];portConstraint=eastwest;whiteSpace=wrap;html=1;" vertex="1" parent="AwRlIOt6ZwoSPuZwess_-19">
          <mxGeometry y="112" width="160" height="38" as="geometry" />
        </mxCell>
        <mxCell id="AwRlIOt6ZwoSPuZwess_-25" value="+ __sub__(other: Vec2|float|int): Vec2" style="text;strokeColor=none;fillColor=none;align=left;verticalAlign=top;spacingLeft=4;spacingRight=4;overflow=hidden;rotatable=0;points=[[0,0.5],[1,0.5]];portConstraint=eastwest;whiteSpace=wrap;html=1;" vertex="1" parent="AwRlIOt6ZwoSPuZwess_-19">
          <mxGeometry y="150" width="160" height="38" as="geometry" />
        </mxCell>
        <mxCell id="AwRlIOt6ZwoSPuZwess_-26" value="+ __mul__(other: Vec2|float|int): Vec2" style="text;strokeColor=none;fillColor=none;align=left;verticalAlign=top;spacingLeft=4;spacingRight=4;overflow=hidden;rotatable=0;points=[[0,0.5],[1,0.5]];portConstraint=eastwest;whiteSpace=wrap;html=1;" vertex="1" parent="AwRlIOt6ZwoSPuZwess_-19">
          <mxGeometry y="188" width="160" height="38" as="geometry" />
        </mxCell>
        <mxCell id="AwRlIOt6ZwoSPuZwess_-27" value="+ __truediv__(other: Vec2|float|int): Vec2" style="text;strokeColor=none;fillColor=none;align=left;verticalAlign=top;spacingLeft=4;spacingRight=4;overflow=hidden;rotatable=0;points=[[0,0.5],[1,0.5]];portConstraint=eastwest;whiteSpace=wrap;html=1;" vertex="1" parent="AwRlIOt6ZwoSPuZwess_-19">
          <mxGeometry y="226" width="160" height="38" as="geometry" />
        </mxCell>
        <mxCell id="AwRlIOt6ZwoSPuZwess_-28" value="+ __eq__(other: Vec2): bool" style="text;strokeColor=none;fillColor=none;align=left;verticalAlign=top;spacingLeft=4;spacingRight=4;overflow=hidden;rotatable=0;points=[[0,0.5],[1,0.5]];portConstraint=eastwest;whiteSpace=wrap;html=1;" vertex="1" parent="AwRlIOt6ZwoSPuZwess_-19">
          <mxGeometry y="264" width="160" height="26" as="geometry" />
        </mxCell>
        <mxCell id="AwRlIOt6ZwoSPuZwess_-29" value="+ rotateRadians(angle: float): Vec2" style="text;strokeColor=none;fillColor=none;align=left;verticalAlign=top;spacingLeft=4;spacingRight=4;overflow=hidden;rotatable=0;points=[[0,0.5],[1,0.5]];portConstraint=eastwest;whiteSpace=wrap;html=1;" vertex="1" parent="AwRlIOt6ZwoSPuZwess_-19">
          <mxGeometry y="290" width="160" height="40" as="geometry" />
        </mxCell>
        <mxCell id="AwRlIOt6ZwoSPuZwess_-30" value="+ rotate(angle: float): Vec2" style="text;strokeColor=none;fillColor=none;align=left;verticalAlign=top;spacingLeft=4;spacingRight=4;overflow=hidden;rotatable=0;points=[[0,0.5],[1,0.5]];portConstraint=eastwest;whiteSpace=wrap;html=1;" vertex="1" parent="AwRlIOt6ZwoSPuZwess_-19">
          <mxGeometry y="330" width="160" height="30" as="geometry" />
        </mxCell>
        <mxCell id="AwRlIOt6ZwoSPuZwess_-31" value="&lt;font style=&quot;font-size: 11px;&quot;&gt;+ rotateAroundRadians(point: Vec2, angle: float): Vec2&lt;/font&gt;" style="text;strokeColor=none;fillColor=none;align=left;verticalAlign=top;spacingLeft=4;spacingRight=4;overflow=hidden;rotatable=0;points=[[0,0.5],[1,0.5]];portConstraint=eastwest;whiteSpace=wrap;html=1;" vertex="1" parent="AwRlIOt6ZwoSPuZwess_-19">
          <mxGeometry y="360" width="160" height="40" as="geometry" />
        </mxCell>
        <mxCell id="AwRlIOt6ZwoSPuZwess_-32" value="&lt;font style=&quot;font-size: 12px;&quot;&gt;+ rotateRadians(point: Vec2, angle: float): Vec2&lt;/font&gt;" style="text;strokeColor=none;fillColor=none;align=left;verticalAlign=top;spacingLeft=4;spacingRight=4;overflow=hidden;rotatable=0;points=[[0,0.5],[1,0.5]];portConstraint=eastwest;whiteSpace=wrap;html=1;" vertex="1" parent="AwRlIOt6ZwoSPuZwess_-19">
          <mxGeometry y="400" width="160" height="40" as="geometry" />
        </mxCell>
        <mxCell id="AwRlIOt6ZwoSPuZwess_-33" value="&lt;font style=&quot;font-size: 12px;&quot;&gt;+ asTuple(): tuple&lt;/font&gt;" style="text;strokeColor=none;fillColor=none;align=left;verticalAlign=top;spacingLeft=4;spacingRight=4;overflow=hidden;rotatable=0;points=[[0,0.5],[1,0.5]];portConstraint=eastwest;whiteSpace=wrap;html=1;" vertex="1" parent="AwRlIOt6ZwoSPuZwess_-19">
          <mxGeometry y="440" width="160" height="30" as="geometry" />
        </mxCell>
        <mxCell id="AwRlIOt6ZwoSPuZwess_-34" value="&lt;font style=&quot;font-size: 12px;&quot;&gt;+ length(): float&lt;/font&gt;" style="text;strokeColor=none;fillColor=none;align=left;verticalAlign=top;spacingLeft=4;spacingRight=4;overflow=hidden;rotatable=0;points=[[0,0.5],[1,0.5]];portConstraint=eastwest;whiteSpace=wrap;html=1;" vertex="1" parent="AwRlIOt6ZwoSPuZwess_-19">
          <mxGeometry y="470" width="160" height="30" as="geometry" />
        </mxCell>
        <mxCell id="AwRlIOt6ZwoSPuZwess_-35" value="&lt;font style=&quot;font-size: 12px;&quot;&gt;+ lengthSquared(): float&lt;/font&gt;" style="text;strokeColor=none;fillColor=none;align=left;verticalAlign=top;spacingLeft=4;spacingRight=4;overflow=hidden;rotatable=0;points=[[0,0.5],[1,0.5]];portConstraint=eastwest;whiteSpace=wrap;html=1;" vertex="1" parent="AwRlIOt6ZwoSPuZwess_-19">
          <mxGeometry y="500" width="160" height="30" as="geometry" />
        </mxCell>
        <mxCell id="AwRlIOt6ZwoSPuZwess_-36" value="&lt;font style=&quot;font-size: 12px;&quot;&gt;+ normalized(): Vec2&lt;/font&gt;" style="text;strokeColor=none;fillColor=none;align=left;verticalAlign=top;spacingLeft=4;spacingRight=4;overflow=hidden;rotatable=0;points=[[0,0.5],[1,0.5]];portConstraint=eastwest;whiteSpace=wrap;html=1;" vertex="1" parent="AwRlIOt6ZwoSPuZwess_-19">
          <mxGeometry y="530" width="160" height="30" as="geometry" />
        </mxCell>
        <mxCell id="AwRlIOt6ZwoSPuZwess_-38" value="GUIElement" style="swimlane;fontStyle=1;align=center;verticalAlign=top;childLayout=stackLayout;horizontal=1;startSize=26;horizontalStack=0;resizeParent=1;resizeParentMax=0;resizeLast=0;collapsible=1;marginBottom=0;whiteSpace=wrap;html=1;" vertex="1" parent="1">
          <mxGeometry x="1020" y="-90" width="160" height="330" as="geometry" />
        </mxCell>
        <mxCell id="AwRlIOt6ZwoSPuZwess_-39" value="+ relativePos: Vec2" style="text;strokeColor=none;fillColor=none;align=left;verticalAlign=top;spacingLeft=4;spacingRight=4;overflow=hidden;rotatable=0;points=[[0,0.5],[1,0.5]];portConstraint=eastwest;whiteSpace=wrap;html=1;" vertex="1" parent="AwRlIOt6ZwoSPuZwess_-38">
          <mxGeometry y="26" width="160" height="26" as="geometry" />
        </mxCell>
        <mxCell id="AwRlIOt6ZwoSPuZwess_-42" value="+ __size: Vec2" style="text;strokeColor=none;fillColor=none;align=left;verticalAlign=top;spacingLeft=4;spacingRight=4;overflow=hidden;rotatable=0;points=[[0,0.5],[1,0.5]];portConstraint=eastwest;whiteSpace=wrap;html=1;" vertex="1" parent="AwRlIOt6ZwoSPuZwess_-38">
          <mxGeometry y="52" width="160" height="26" as="geometry" />
        </mxCell>
        <mxCell id="AwRlIOt6ZwoSPuZwess_-43" value="+ visible: bool" style="text;strokeColor=none;fillColor=none;align=left;verticalAlign=top;spacingLeft=4;spacingRight=4;overflow=hidden;rotatable=0;points=[[0,0.5],[1,0.5]];portConstraint=eastwest;whiteSpace=wrap;html=1;" vertex="1" parent="AwRlIOt6ZwoSPuZwess_-38">
          <mxGeometry y="78" width="160" height="26" as="geometry" />
        </mxCell>
        <mxCell id="AwRlIOt6ZwoSPuZwess_-44" value="+ parent: GUIContainer" style="text;strokeColor=none;fillColor=none;align=left;verticalAlign=top;spacingLeft=4;spacingRight=4;overflow=hidden;rotatable=0;points=[[0,0.5],[1,0.5]];portConstraint=eastwest;whiteSpace=wrap;html=1;" vertex="1" parent="AwRlIOt6ZwoSPuZwess_-38">
          <mxGeometry y="104" width="160" height="26" as="geometry" />
        </mxCell>
        <mxCell id="AwRlIOt6ZwoSPuZwess_-40" value="" style="line;strokeWidth=1;fillColor=none;align=left;verticalAlign=middle;spacingTop=-1;spacingLeft=3;spacingRight=3;rotatable=0;labelPosition=right;points=[];portConstraint=eastwest;strokeColor=inherit;" vertex="1" parent="AwRlIOt6ZwoSPuZwess_-38">
          <mxGeometry y="130" width="160" height="8" as="geometry" />
        </mxCell>
        <mxCell id="AwRlIOt6ZwoSPuZwess_-41" value="+ draw(): void" style="text;strokeColor=none;fillColor=none;align=left;verticalAlign=top;spacingLeft=4;spacingRight=4;overflow=hidden;rotatable=0;points=[[0,0.5],[1,0.5]];portConstraint=eastwest;whiteSpace=wrap;html=1;" vertex="1" parent="AwRlIOt6ZwoSPuZwess_-38">
          <mxGeometry y="138" width="160" height="26" as="geometry" />
        </mxCell>
        <mxCell id="AwRlIOt6ZwoSPuZwess_-45" value="&lt;font style=&quot;font-size: 11px;&quot;&gt;+ addToContainer(container: GUIContainer): void&lt;/font&gt;" style="text;strokeColor=none;fillColor=none;align=left;verticalAlign=top;spacingLeft=4;spacingRight=4;overflow=hidden;rotatable=0;points=[[0,0.5],[1,0.5]];portConstraint=eastwest;whiteSpace=wrap;html=1;" vertex="1" parent="AwRlIOt6ZwoSPuZwess_-38">
          <mxGeometry y="164" width="160" height="36" as="geometry" />
        </mxCell>
        <mxCell id="AwRlIOt6ZwoSPuZwess_-46" value="+ toggleVisible(): void" style="text;strokeColor=none;fillColor=none;align=left;verticalAlign=top;spacingLeft=4;spacingRight=4;overflow=hidden;rotatable=0;points=[[0,0.5],[1,0.5]];portConstraint=eastwest;whiteSpace=wrap;html=1;" vertex="1" parent="AwRlIOt6ZwoSPuZwess_-38">
          <mxGeometry y="200" width="160" height="30" as="geometry" />
        </mxCell>
        <mxCell id="AwRlIOt6ZwoSPuZwess_-47" value="+ getAbsolutePosition(): Vec2" style="text;strokeColor=none;fillColor=none;align=left;verticalAlign=top;spacingLeft=4;spacingRight=4;overflow=hidden;rotatable=0;points=[[0,0.5],[1,0.5]];portConstraint=eastwest;whiteSpace=wrap;html=1;" vertex="1" parent="AwRlIOt6ZwoSPuZwess_-38">
          <mxGeometry y="230" width="160" height="40" as="geometry" />
        </mxCell>
        <mxCell id="AwRlIOt6ZwoSPuZwess_-48" value="+ setSize(size: Vec2): void" style="text;strokeColor=none;fillColor=none;align=left;verticalAlign=top;spacingLeft=4;spacingRight=4;overflow=hidden;rotatable=0;points=[[0,0.5],[1,0.5]];portConstraint=eastwest;whiteSpace=wrap;html=1;" vertex="1" parent="AwRlIOt6ZwoSPuZwess_-38">
          <mxGeometry y="270" width="160" height="30" as="geometry" />
        </mxCell>
        <mxCell id="AwRlIOt6ZwoSPuZwess_-49" value="+ getSize(): Vec2" style="text;strokeColor=none;fillColor=none;align=left;verticalAlign=top;spacingLeft=4;spacingRight=4;overflow=hidden;rotatable=0;points=[[0,0.5],[1,0.5]];portConstraint=eastwest;whiteSpace=wrap;html=1;" vertex="1" parent="AwRlIOt6ZwoSPuZwess_-38">
          <mxGeometry y="300" width="160" height="30" as="geometry" />
        </mxCell>
        <mxCell id="AwRlIOt6ZwoSPuZwess_-50" value="GUIContainer" style="swimlane;fontStyle=1;align=center;verticalAlign=top;childLayout=stackLayout;horizontal=1;startSize=26;horizontalStack=0;resizeParent=1;resizeParentMax=0;resizeLast=0;collapsible=1;marginBottom=0;whiteSpace=wrap;html=1;" vertex="1" parent="1">
          <mxGeometry x="1340" y="320" width="160" height="140" as="geometry" />
        </mxCell>
        <mxCell id="AwRlIOt6ZwoSPuZwess_-51" value="+ children: list[GUIElement]" style="text;strokeColor=none;fillColor=none;align=left;verticalAlign=top;spacingLeft=4;spacingRight=4;overflow=hidden;rotatable=0;points=[[0,0.5],[1,0.5]];portConstraint=eastwest;whiteSpace=wrap;html=1;" vertex="1" parent="AwRlIOt6ZwoSPuZwess_-50">
          <mxGeometry y="26" width="160" height="26" as="geometry" />
        </mxCell>
        <mxCell id="AwRlIOt6ZwoSPuZwess_-52" value="" style="line;strokeWidth=1;fillColor=none;align=left;verticalAlign=middle;spacingTop=-1;spacingLeft=3;spacingRight=3;rotatable=0;labelPosition=right;points=[];portConstraint=eastwest;strokeColor=inherit;" vertex="1" parent="AwRlIOt6ZwoSPuZwess_-50">
          <mxGeometry y="52" width="160" height="8" as="geometry" />
        </mxCell>
        <mxCell id="AwRlIOt6ZwoSPuZwess_-53" value="+ addChild(child: GUIElement): void" style="text;strokeColor=none;fillColor=none;align=left;verticalAlign=top;spacingLeft=4;spacingRight=4;overflow=hidden;rotatable=0;points=[[0,0.5],[1,0.5]];portConstraint=eastwest;whiteSpace=wrap;html=1;" vertex="1" parent="AwRlIOt6ZwoSPuZwess_-50">
          <mxGeometry y="60" width="160" height="40" as="geometry" />
        </mxCell>
        <mxCell id="AwRlIOt6ZwoSPuZwess_-55" value="+ getChildOffset(child: GUIElement): Vec2" style="text;strokeColor=none;fillColor=none;align=left;verticalAlign=top;spacingLeft=4;spacingRight=4;overflow=hidden;rotatable=0;points=[[0,0.5],[1,0.5]];portConstraint=eastwest;whiteSpace=wrap;html=1;" vertex="1" parent="AwRlIOt6ZwoSPuZwess_-50">
          <mxGeometry y="100" width="160" height="40" as="geometry" />
        </mxCell>
        <mxCell id="AwRlIOt6ZwoSPuZwess_-54" value="Extends" style="endArrow=block;endSize=16;endFill=0;html=1;rounded=0;exitX=0.498;exitY=0.999;exitDx=0;exitDy=0;exitPerimeter=0;entryX=0.5;entryY=0;entryDx=0;entryDy=0;" edge="1" parent="1" source="AwRlIOt6ZwoSPuZwess_-49" target="AwRlIOt6ZwoSPuZwess_-50">
          <mxGeometry width="160" relative="1" as="geometry">
            <mxPoint x="720" y="280" as="sourcePoint" />
            <mxPoint x="880" y="280" as="targetPoint" />
          </mxGeometry>
        </mxCell>
        <mxCell id="AwRlIOt6ZwoSPuZwess_-57" value="Rect" style="swimlane;fontStyle=1;align=center;verticalAlign=top;childLayout=stackLayout;horizontal=1;startSize=26;horizontalStack=0;resizeParent=1;resizeParentMax=0;resizeLast=0;collapsible=1;marginBottom=0;whiteSpace=wrap;html=1;" vertex="1" parent="1">
          <mxGeometry x="200" y="210" width="160" height="190" as="geometry" />
        </mxCell>
        <mxCell id="AwRlIOt6ZwoSPuZwess_-58" value="+ topleft: Vec2" style="text;strokeColor=none;fillColor=none;align=left;verticalAlign=top;spacingLeft=4;spacingRight=4;overflow=hidden;rotatable=0;points=[[0,0.5],[1,0.5]];portConstraint=eastwest;whiteSpace=wrap;html=1;" vertex="1" parent="AwRlIOt6ZwoSPuZwess_-57">
          <mxGeometry y="26" width="160" height="26" as="geometry" />
        </mxCell>
        <mxCell id="AwRlIOt6ZwoSPuZwess_-61" value="+ size: Vec2" style="text;strokeColor=none;fillColor=none;align=left;verticalAlign=top;spacingLeft=4;spacingRight=4;overflow=hidden;rotatable=0;points=[[0,0.5],[1,0.5]];portConstraint=eastwest;whiteSpace=wrap;html=1;" vertex="1" parent="AwRlIOt6ZwoSPuZwess_-57">
          <mxGeometry y="52" width="160" height="26" as="geometry" />
        </mxCell>
        <mxCell id="AwRlIOt6ZwoSPuZwess_-59" value="" style="line;strokeWidth=1;fillColor=none;align=left;verticalAlign=middle;spacingTop=-1;spacingLeft=3;spacingRight=3;rotatable=0;labelPosition=right;points=[];portConstraint=eastwest;strokeColor=inherit;" vertex="1" parent="AwRlIOt6ZwoSPuZwess_-57">
          <mxGeometry y="78" width="160" height="8" as="geometry" />
        </mxCell>
        <mxCell id="AwRlIOt6ZwoSPuZwess_-60" value="+ getX(): float" style="text;strokeColor=none;fillColor=none;align=left;verticalAlign=top;spacingLeft=4;spacingRight=4;overflow=hidden;rotatable=0;points=[[0,0.5],[1,0.5]];portConstraint=eastwest;whiteSpace=wrap;html=1;" vertex="1" parent="AwRlIOt6ZwoSPuZwess_-57">
          <mxGeometry y="86" width="160" height="26" as="geometry" />
        </mxCell>
        <mxCell id="AwRlIOt6ZwoSPuZwess_-62" value="+ getY(): float" style="text;strokeColor=none;fillColor=none;align=left;verticalAlign=top;spacingLeft=4;spacingRight=4;overflow=hidden;rotatable=0;points=[[0,0.5],[1,0.5]];portConstraint=eastwest;whiteSpace=wrap;html=1;" vertex="1" parent="AwRlIOt6ZwoSPuZwess_-57">
          <mxGeometry y="112" width="160" height="26" as="geometry" />
        </mxCell>
        <mxCell id="AwRlIOt6ZwoSPuZwess_-63" value="+ getWidth(): float" style="text;strokeColor=none;fillColor=none;align=left;verticalAlign=top;spacingLeft=4;spacingRight=4;overflow=hidden;rotatable=0;points=[[0,0.5],[1,0.5]];portConstraint=eastwest;whiteSpace=wrap;html=1;" vertex="1" parent="AwRlIOt6ZwoSPuZwess_-57">
          <mxGeometry y="138" width="160" height="26" as="geometry" />
        </mxCell>
        <mxCell id="AwRlIOt6ZwoSPuZwess_-64" value="+ getHeight(): float" style="text;strokeColor=none;fillColor=none;align=left;verticalAlign=top;spacingLeft=4;spacingRight=4;overflow=hidden;rotatable=0;points=[[0,0.5],[1,0.5]];portConstraint=eastwest;whiteSpace=wrap;html=1;" vertex="1" parent="AwRlIOt6ZwoSPuZwess_-57">
          <mxGeometry y="164" width="160" height="26" as="geometry" />
        </mxCell>
        <mxCell id="AwRlIOt6ZwoSPuZwess_-65" value="RootContainer" style="swimlane;fontStyle=1;align=center;verticalAlign=top;childLayout=stackLayout;horizontal=1;startSize=26;horizontalStack=0;resizeParent=1;resizeParentMax=0;resizeLast=0;collapsible=1;marginBottom=0;whiteSpace=wrap;html=1;" vertex="1" parent="1">
          <mxGeometry x="1200" y="530" width="160" height="34" as="geometry" />
        </mxCell>
        <mxCell id="AwRlIOt6ZwoSPuZwess_-67" value="" style="line;strokeWidth=1;fillColor=none;align=left;verticalAlign=middle;spacingTop=-1;spacingLeft=3;spacingRight=3;rotatable=0;labelPosition=right;points=[];portConstraint=eastwest;strokeColor=inherit;" vertex="1" parent="AwRlIOt6ZwoSPuZwess_-65">
          <mxGeometry y="26" width="160" height="8" as="geometry" />
        </mxCell>
        <mxCell id="AwRlIOt6ZwoSPuZwess_-69" value="Extends" style="endArrow=block;endSize=16;endFill=0;html=1;rounded=0;exitX=0.495;exitY=0.996;exitDx=0;exitDy=0;entryX=0.5;entryY=0;entryDx=0;entryDy=0;exitPerimeter=0;" edge="1" parent="1" source="AwRlIOt6ZwoSPuZwess_-55" target="AwRlIOt6ZwoSPuZwess_-65">
          <mxGeometry width="160" relative="1" as="geometry">
            <mxPoint x="1630" y="150" as="sourcePoint" />
            <mxPoint x="1430" y="330" as="targetPoint" />
          </mxGeometry>
        </mxCell>
        <mxCell id="AwRlIOt6ZwoSPuZwess_-70" value="AlignmentContainer" style="swimlane;fontStyle=1;align=center;verticalAlign=top;childLayout=stackLayout;horizontal=1;startSize=26;horizontalStack=0;resizeParent=1;resizeParentMax=0;resizeLast=0;collapsible=1;marginBottom=0;whiteSpace=wrap;html=1;" vertex="1" parent="1">
          <mxGeometry x="1520" y="550" width="160" height="152" as="geometry" />
        </mxCell>
        <mxCell id="AwRlIOt6ZwoSPuZwess_-71" value="+ childrenAlignments: list[str]" style="text;strokeColor=none;fillColor=none;align=left;verticalAlign=top;spacingLeft=4;spacingRight=4;overflow=hidden;rotatable=0;points=[[0,0.5],[1,0.5]];portConstraint=eastwest;whiteSpace=wrap;html=1;" vertex="1" parent="AwRlIOt6ZwoSPuZwess_-70">
          <mxGeometry y="26" width="160" height="34" as="geometry" />
        </mxCell>
        <mxCell id="AwRlIOt6ZwoSPuZwess_-72" value="" style="line;strokeWidth=1;fillColor=none;align=left;verticalAlign=middle;spacingTop=-1;spacingLeft=3;spacingRight=3;rotatable=0;labelPosition=right;points=[];portConstraint=eastwest;strokeColor=inherit;" vertex="1" parent="AwRlIOt6ZwoSPuZwess_-70">
          <mxGeometry y="60" width="160" height="8" as="geometry" />
        </mxCell>
        <mxCell id="AwRlIOt6ZwoSPuZwess_-73" value="&lt;font style=&quot;font-size: 11px;&quot;&gt;+ getAlignmentOfChild(child: GUIElement): str&lt;/font&gt;" style="text;strokeColor=none;fillColor=none;align=left;verticalAlign=top;spacingLeft=4;spacingRight=4;overflow=hidden;rotatable=0;points=[[0,0.5],[1,0.5]];portConstraint=eastwest;whiteSpace=wrap;html=1;" vertex="1" parent="AwRlIOt6ZwoSPuZwess_-70">
          <mxGeometry y="68" width="160" height="42" as="geometry" />
        </mxCell>
        <mxCell id="AwRlIOt6ZwoSPuZwess_-75" value="&lt;font style=&quot;font-size: 12px;&quot;&gt;+ getChildOffset(child: GUIElement): Vec2&lt;/font&gt;" style="text;strokeColor=none;fillColor=none;align=left;verticalAlign=top;spacingLeft=4;spacingRight=4;overflow=hidden;rotatable=0;points=[[0,0.5],[1,0.5]];portConstraint=eastwest;whiteSpace=wrap;html=1;" vertex="1" parent="AwRlIOt6ZwoSPuZwess_-70">
          <mxGeometry y="110" width="160" height="42" as="geometry" />
        </mxCell>
        <mxCell id="AwRlIOt6ZwoSPuZwess_-74" value="Extends" style="endArrow=block;endSize=16;endFill=0;html=1;rounded=0;entryX=0.5;entryY=0;entryDx=0;entryDy=0;exitX=0.503;exitY=0.996;exitDx=0;exitDy=0;exitPerimeter=0;" edge="1" parent="1" source="AwRlIOt6ZwoSPuZwess_-55" target="AwRlIOt6ZwoSPuZwess_-70">
          <mxGeometry width="160" relative="1" as="geometry">
            <mxPoint x="1640" y="160" as="sourcePoint" />
            <mxPoint x="1440" y="340" as="targetPoint" />
          </mxGeometry>
        </mxCell>
        <mxCell id="AwRlIOt6ZwoSPuZwess_-76" value="GUIImage" style="swimlane;fontStyle=1;align=center;verticalAlign=top;childLayout=stackLayout;horizontal=1;startSize=26;horizontalStack=0;resizeParent=1;resizeParentMax=0;resizeLast=0;collapsible=1;marginBottom=0;whiteSpace=wrap;html=1;" vertex="1" parent="1">
          <mxGeometry x="870" y="330" width="160" height="60" as="geometry" />
        </mxCell>
        <mxCell id="AwRlIOt6ZwoSPuZwess_-77" value="+ image: Image" style="text;strokeColor=none;fillColor=none;align=left;verticalAlign=top;spacingLeft=4;spacingRight=4;overflow=hidden;rotatable=0;points=[[0,0.5],[1,0.5]];portConstraint=eastwest;whiteSpace=wrap;html=1;" vertex="1" parent="AwRlIOt6ZwoSPuZwess_-76">
          <mxGeometry y="26" width="160" height="26" as="geometry" />
        </mxCell>
        <mxCell id="AwRlIOt6ZwoSPuZwess_-78" value="" style="line;strokeWidth=1;fillColor=none;align=left;verticalAlign=middle;spacingTop=-1;spacingLeft=3;spacingRight=3;rotatable=0;labelPosition=right;points=[];portConstraint=eastwest;strokeColor=inherit;" vertex="1" parent="AwRlIOt6ZwoSPuZwess_-76">
          <mxGeometry y="52" width="160" height="8" as="geometry" />
        </mxCell>
        <mxCell id="AwRlIOt6ZwoSPuZwess_-80" value="Extends" style="endArrow=block;endSize=16;endFill=0;html=1;rounded=0;exitX=0.497;exitY=1.003;exitDx=0;exitDy=0;exitPerimeter=0;entryX=0.5;entryY=0;entryDx=0;entryDy=0;" edge="1" parent="1" source="AwRlIOt6ZwoSPuZwess_-49" target="AwRlIOt6ZwoSPuZwess_-76">
          <mxGeometry width="160" relative="1" as="geometry">
            <mxPoint x="1100" y="250" as="sourcePoint" />
            <mxPoint x="1430" y="330" as="targetPoint" />
          </mxGeometry>
        </mxCell>
        <mxCell id="AwRlIOt6ZwoSPuZwess_-82" value="" style="endArrow=diamondThin;endFill=1;endSize=24;html=1;rounded=0;exitX=1;exitY=0.5;exitDx=0;exitDy=0;entryX=0;entryY=0.5;entryDx=0;entryDy=0;curved=0;flowAnimation=0;shadow=1;" edge="1" parent="1" source="AwRlIOt6ZwoSPuZwess_-14" target="AwRlIOt6ZwoSPuZwess_-77">
          <mxGeometry width="160" relative="1" as="geometry">
            <mxPoint x="930" y="190" as="sourcePoint" />
            <mxPoint x="1090" y="190" as="targetPoint" />
          </mxGeometry>
        </mxCell>
      </root>
    </mxGraphModel>
  </diagram>
</mxfile>
